<svg xmlns="http://www.w3.org/2000/svg" viewBox="0 0 243.49 243.02"><defs><style>.cls-1{fill:#fff;}.cls-2{fill:#4f89ce;}</style></defs><title>Asset 32</title><g id="Layer_2" data-name="Layer 2"><g id="Layer_1-2" data-name="Layer 1"><g id="Logo"><path class="cls-1" d="M3.52,199.57c1.78-1.86,3.54-3.81,5.39-5.94a232.54,232.54,0,0,0,22.87-31.87l0,0,0-.06.19-.3c1.26-2,2.63-4.23,4.19-6.84,5.31-8.89,10.51-18.64,15.81-29.61.09-.61.19-1.25.27-1.86l.26-1.76c1.16-7.85,2.27-16.14,3.4-25.35l.63-5.32Q58,79,59.2,67.47L59.67,63c.62-5.85,1.33-12.65,1.94-19.46L62,39.19q.84-9.39,1.64-18.77c.15-1.81.22-3.11.3-4.56.14-2.64.32-5.92,1.36-15.86H32.56c-.83,8.23-1,11.47-1.15,14.15-.06,1.13-.11,2.14-.23,3.55q-.8,9.32-1.62,18.62l-.4,4.38c-.59,6.57-1.28,13.23-1.88,18.94l-.47,4.45c-.8,7.59-1.67,15.18-2.56,22.76-.2,1.72-.41,3.44-.62,5.18-1.09,8.94-2.16,17-3.29,24.59l-.27,1.83c-1,6.73-2,13.69-3.14,20.41l-.86,5.07c-.43,2.5-.85,5-1.3,7.49-.21,1.17-.42,2.33-.64,3.49-1.07,5.61-2.22,11.18-3.44,16.53-1.86,8.21-3.75,15.34-5.83,22-.57,1.93-1.24,4-1.94,6.22h.53Z"/><path class="cls-1" d="M223.74,0C215,13.55,206.85,25.68,199,36.88,186.56,54.7,174.55,70.8,162.36,86a621.39,621.39,0,0,1-47.44,52.88l-.2.2c-4.86,5-9.69,9.74-14.54,14.34-8.34,7.91-16.7,15.32-25.26,22.38q-2.33,1.9-4.66,3.8c-8.44,6.88-19,14.31-27.3,20l36.85-12.76,25.6-8.53,13.31-4.44,10.74-3.58c2.84-2.79,5.68-5.61,8.53-8.52a657.07,657.07,0,0,0,49.83-55.55c12.67-15.83,25.08-32.47,38-50.88,5.73-8.19,11.61-16.85,17.72-26.12V0Z"/><path class="cls-1" d="M63,170.57c1.53-1.22,3-2.46,4.55-3.7,7.85-6.47,15.51-13.24,23.15-20.43,1.44-2.95,2.9-6,4.36-9.12q1.39-3,2.74-5.95C104,117.66,110,103.13,116.05,87c3.86-10.23,7.5-20.45,10.81-30.38q2.14-6.42,4.24-12.84,2.51-7.73,5-15.44c2-6.23,3.85-12.46,5.73-18.69l.16-.51q1-3.24,1.93-6.5c.26-.88.5-1.75.74-2.63H110.69l-.1.33c-1.85,6.1-3.69,12.2-5.62,18.3q-2.4,7.61-4.87,15.19-2,6.3-4.15,12.59C92.76,56,89.26,65.79,85.55,75.65,79.73,91.13,74,105,68.09,118q-1.29,2.83-2.6,5.66c-.73,1.57-1.46,3.1-2.19,4.62-5.75,12-11.31,22.48-17.08,32.14-1.44,2.41-2.88,4.78-4.35,7.1l-.15.24A247.28,247.28,0,0,1,19,199.65h2.45l.13-.08C29.45,195,37.18,190,45,184.38,50.91,180.11,56.89,175.54,63,170.57Z"/><path class="cls-1" d="M135.67,180.47,78.13,199.64h36.72c.72-.61,1.43-1.25,2.14-1.87l-2,1.82-.17,0H180.6l62.89-20.95V144.58L135.67,180.47Z"/><rect class="cls-2" y="211.16" width="243.49" height="31.86"/></g></g></g></svg>